<svg xmlns="http://www.w3.org/2000/svg" viewBox="0 0 201.19 71.84"><title>nugosu-logo-head-typo-black</title><g id="Layer_2" data-name="Layer 2"><g id="Layer_1-2" data-name="Layer 1"><path d="M196.8,49.46a7.09,7.09,0,0,1-2.46,5.9c-1.65,1.31-4,2-7,2q-9.26,0-9.24-7.86V23.78l8.71-3V49.6q0,.84.57.84c.45,0,.67-.28.67-.84V20.38l8.79-3Zm-20-.74a8.16,8.16,0,0,1-2.48,6.36q-2.49,2.23-7.06,2.24-9.37,0-9.36-7.19V41.7h8.7v8c0,.56.21.84.62.84s.59-.25.59-.76v-7.7a1.58,1.58,0,0,0-1.12-1.59l-2.76-.63a7.61,7.61,0,0,1-4.82-2.45,8.76,8.76,0,0,1-1.47-5.5V30.76l8.92-3.05v3.1a1.66,1.66,0,0,0,.88,1.59l3.84.84a8,8,0,0,1,4.12,2.3,7.23,7.23,0,0,1,1.4,4.89Zm-20.4-19.14-9,3.07V24.7c0-.56-.2-.84-.59-.84s-.58.28-.58.84v8.35l-9,3.06v-9q0-5.26,2.4-7.7c1.6-1.62,4-2.43,7.12-2.43s5.69.8,7.27,2.41,2.37,4.18,2.37,7.72Zm0,17.63c0,3.54-.79,6.11-2.37,7.69s-4,2.38-7.27,2.38-5.52-.8-7.12-2.4-2.4-4.16-2.4-7.67v-9.5l9-3.07v15c0,.53.18.8.53.8s.64-.27.64-.8V34.25l9-3.07Zm-20.52-13H127V24.7c0-.53-.2-.8-.59-.8s-.58.27-.58.8V40l-8.74,3V27.13c0-3.54.78-6.11,2.36-7.72s4-2.41,7.34-2.41q9,0,9,7.86Zm0,22.67h-6.78l-.84-3.84h-.37a6.41,6.41,0,0,1-1.65,3.26,4.78,4.78,0,0,1-3.25,1,5.13,5.13,0,0,1-4.3-2q-1.55-2-1.54-6.15V44.56l8.74-3v8.27c0,.53.23.79.7.79s.67-.33.67-1V41.11l8.62-2.94ZM115.69,43.45l-8.78,3v-29h8.78Zm0,6a7.09,7.09,0,0,1-2.46,5.9q-2.46,2-7,2-8,0-9.07-5.94l8.54-2.91V49.6q0,.84.57.84c.45,0,.68-.28.68-.84V48l8.78-3ZM97,49.46V17.39h8.7V46.87l-8.69,3c0-.12,0-.24,0-.37m-1.51.89-8.89,3L84.32,36.79h-.41l.61,9.58v7.71l-8.31,2.83V17.39H84.7l2.68,19.32h.41l-.68-8.95V17.39h8.34Zm62.15-25.1a7.7,7.7,0,0,1,2.45-6.07Q162.5,17,167.18,17a10.62,10.62,0,0,1,6.74,1.89,6.07,6.07,0,0,1,2.27,3.93l-8.5,2.9V24.58c0-.56-.2-.84-.58-.84s-.59.28-.59.84v1.53l-8.92,3.05Zm20.46-4.37V13H71.81V61.31l23.64-8.06v8.06H201.19V13Z"/><polygon points="41.72 41.52 42.57 35.77 32.41 44.69 41.72 41.52"/><polygon points="50.84 0 32.41 23.6 13.97 0 13.97 9.21 19.5 15.24 12.19 22.05 7 18.92 1.11 30.99 5.93 32.6 1.68 42.44 5.81 44.07 0 60.79 12.8 65.16 15.4 47.28 20.02 48.91 18.11 35.77 21.63 29.99 32.41 33.65 43.18 29.99 46.7 35.77 44.79 48.91 49.41 47.28 52.01 65.16 64.81 60.79 59 44.07 63.13 42.44 58.88 32.6 63.7 30.99 57.82 18.92 52.62 22.05 45.32 15.24 50.84 9.21 50.84 0"/><polygon points="23.09 41.52 32.41 44.69 22.24 35.77 23.09 41.52"/><polygon points="32.41 23.6 32.41 23.6 38.28 10.81 32.41 7.1 26.53 10.81 32.41 23.6"/><polygon points="20.02 48.91 17.43 66.73 32.41 71.84 47.39 66.73 44.79 48.91 32.41 44.69 20.02 48.91"/></g></g></svg>